<!-- Generator: Adobe Illustrator 23.0.1, SVG Export Plug-In  -->
<svg version="1.1" xmlns="http://www.w3.org/2000/svg" xmlns:xlink="http://www.w3.org/1999/xlink" x="0px" y="0px"
	 width="17.586px" height="9.256px" viewBox="0 0 17.586 9.256" style="enable-background:new 0 0 17.586 9.256;"
	 xml:space="preserve">
<style type="text/css">
	.st0{fill:#FFFFFF;}
	.st1{fill:#B22234;}
	.st2{fill:#3C3B6E;}
</style>
<defs>
</defs>
<g>
	<rect id="_x35_9_1_" class="st0" width="17.586" height="9.256"/>
	<rect id="_x35_8_1_" class="st1" width="17.586" height="0.712"/>
	<rect id="_x35_7_1_" y="1.424" class="st1" width="17.586" height="0.712"/>
	<rect id="_x35_6_1_" y="2.848" class="st1" width="17.586" height="0.712"/>
	<rect id="_x35_5_1_" y="4.272" class="st1" width="17.586" height="0.712"/>
	<rect id="_x35_4_1_" y="5.696" class="st1" width="17.586" height="0.712"/>
	<rect id="_x35_3_1_" y="7.12" class="st1" width="17.586" height="0.712"/>
	<rect id="_x35_2_1_" y="8.544" class="st1" width="17.586" height="0.712"/>
	<rect id="_x35_1_1_" class="st2" width="7.035" height="4.984"/>
	<polygon id="_x35_0_1_" class="st0" points="0.331,0.405 0.498,0.526 0.434,0.723 0.602,0.602 0.769,0.723 0.705,0.526 
		0.873,0.405 0.666,0.405 0.602,0.208 0.538,0.405 	"/>
	<polygon id="_x34_9_1_" class="st0" points="1.497,0.405 1.664,0.526 1.6,0.723 1.768,0.602 1.935,0.723 1.871,0.526 2.039,0.405 
		1.832,0.405 1.768,0.208 1.704,0.405 	"/>
	<polygon id="_x34_8_1_" class="st0" points="2.663,0.405 2.831,0.526 2.767,0.723 2.934,0.602 3.102,0.723 3.038,0.526 
		3.205,0.405 2.998,0.405 2.934,0.208 2.87,0.405 	"/>
	<polygon id="_x34_7_1_" class="st0" points="3.829,0.405 3.997,0.526 3.933,0.723 4.1,0.602 4.268,0.723 4.204,0.526 4.372,0.405 
		4.164,0.405 4.1,0.208 4.036,0.405 	"/>
	<polygon id="_x34_6_1_" class="st0" points="4.996,0.405 5.163,0.526 5.099,0.723 5.267,0.602 5.434,0.723 5.37,0.526 5.538,0.405 
		5.331,0.405 5.267,0.208 5.203,0.405 	"/>
	<polygon id="_x34_5_1_" class="st0" points="6.162,0.405 6.329,0.526 6.265,0.723 6.433,0.602 6.6,0.723 6.536,0.526 6.704,0.405 
		6.497,0.405 6.433,0.208 6.369,0.405 	"/>
	<polygon id="_x34_4_1_" class="st0" points="0.914,0.904 1.081,1.026 1.017,1.223 1.185,1.101 1.352,1.223 1.288,1.026 
		1.456,0.904 1.249,0.904 1.185,0.707 1.121,0.904 	"/>
	<polygon id="_x34_3_1_" class="st0" points="2.08,0.904 2.247,1.026 2.183,1.223 2.351,1.101 2.519,1.223 2.455,1.026 2.622,0.904 
		2.415,0.904 2.351,0.707 2.287,0.904 	"/>
	<polygon id="_x34_2_1_" class="st0" points="3.246,0.904 3.414,1.026 3.35,1.223 3.517,1.101 3.685,1.223 3.621,1.026 3.788,0.904 
		3.581,0.904 3.517,0.707 3.453,0.904 	"/>
	<polygon id="_x34_1_1_" class="st0" points="4.412,0.904 4.58,1.026 4.516,1.223 4.684,1.101 4.851,1.223 4.787,1.026 4.955,0.904 
		4.748,0.904 4.684,0.707 4.62,0.904 	"/>
	<polygon id="_x34_0_1_" class="st0" points="5.579,0.904 5.746,1.026 5.682,1.223 5.85,1.101 6.017,1.223 5.953,1.026 6.121,0.904 
		5.914,0.904 5.85,0.707 5.786,0.904 	"/>
	<polygon id="_x33_9_1_" class="st0" points="0.331,1.404 0.498,1.526 0.434,1.723 0.602,1.601 0.769,1.723 0.705,1.526 
		0.873,1.404 0.666,1.404 0.602,1.207 0.538,1.404 	"/>
	<polygon id="_x33_8_1_" class="st0" points="1.497,1.404 1.664,1.526 1.6,1.723 1.768,1.601 1.935,1.723 1.871,1.526 2.039,1.404 
		1.832,1.404 1.768,1.207 1.704,1.404 	"/>
	<polygon id="_x33_7_1_" class="st0" points="2.663,1.404 2.831,1.526 2.767,1.723 2.934,1.601 3.102,1.723 3.038,1.526 
		3.205,1.404 2.998,1.404 2.934,1.207 2.87,1.404 	"/>
	<polygon id="_x33_6_1_" class="st0" points="3.829,1.404 3.997,1.526 3.933,1.723 4.1,1.601 4.268,1.723 4.204,1.526 4.372,1.404 
		4.164,1.404 4.1,1.207 4.036,1.404 	"/>
	<polygon id="_x33_5_1_" class="st0" points="4.996,1.404 5.163,1.526 5.099,1.723 5.267,1.601 5.434,1.723 5.37,1.526 5.538,1.404 
		5.331,1.404 5.267,1.207 5.203,1.404 	"/>
	<polygon id="_x33_4_1_" class="st0" points="6.162,1.404 6.329,1.526 6.265,1.723 6.433,1.601 6.6,1.723 6.536,1.526 6.704,1.404 
		6.497,1.404 6.433,1.207 6.369,1.404 	"/>
	<polygon id="_x33_3_1_" class="st0" points="0.928,1.906 1.096,2.027 1.032,2.224 1.199,2.103 1.367,2.224 1.303,2.027 1.47,1.906 
		1.263,1.906 1.199,1.709 1.135,1.906 	"/>
	<polygon id="_x33_2_1_" class="st0" points="2.094,1.906 2.262,2.027 2.198,2.224 2.365,2.103 2.533,2.224 2.469,2.027 
		2.637,1.906 2.429,1.906 2.365,1.709 2.301,1.906 	"/>
	<polygon id="_x33_1_1_" class="st0" points="3.261,1.906 3.428,2.027 3.364,2.224 3.532,2.103 3.699,2.224 3.635,2.027 
		3.803,1.906 3.596,1.906 3.532,1.709 3.468,1.906 	"/>
	<polygon id="_x33_0_1_" class="st0" points="4.427,1.906 4.594,2.027 4.53,2.224 4.698,2.103 4.865,2.224 4.801,2.027 4.969,1.906 
		4.762,1.906 4.698,1.709 4.634,1.906 	"/>
	<polygon id="_x32_9_1_" class="st0" points="5.593,1.906 5.761,2.027 5.697,2.224 5.864,2.103 6.032,2.224 5.968,2.027 
		6.135,1.906 5.928,1.906 5.864,1.709 5.8,1.906 	"/>
	<polygon id="_x32_8_1_" class="st0" points="0.348,2.401 0.516,2.523 0.452,2.72 0.619,2.598 0.787,2.72 0.723,2.523 0.89,2.401 
		0.683,2.401 0.619,2.204 0.555,2.401 	"/>
	<polygon id="_x32_7_1_" class="st0" points="1.514,2.401 1.682,2.523 1.618,2.72 1.786,2.598 1.953,2.72 1.889,2.523 2.057,2.401 
		1.85,2.401 1.786,2.204 1.722,2.401 	"/>
	<polygon id="_x32_6_1_" class="st0" points="2.681,2.401 2.848,2.523 2.784,2.72 2.952,2.598 3.119,2.72 3.055,2.523 3.223,2.401 
		3.016,2.401 2.952,2.204 2.888,2.401 	"/>
	<polygon id="_x32_5_1_" class="st0" points="3.847,2.401 4.015,2.523 3.951,2.72 4.118,2.598 4.286,2.72 4.222,2.523 4.389,2.401 
		4.182,2.401 4.118,2.204 4.054,2.401 	"/>
	<polygon id="_x32_4_1_" class="st0" points="5.013,2.401 5.181,2.523 5.117,2.72 5.284,2.598 5.452,2.72 5.388,2.523 5.555,2.401 
		5.348,2.401 5.284,2.204 5.22,2.401 	"/>
	<polygon id="_x32_3_1_" class="st0" points="6.179,2.401 6.347,2.523 6.283,2.72 6.451,2.598 6.618,2.72 6.554,2.523 6.722,2.401 
		6.515,2.401 6.451,2.204 6.387,2.401 	"/>
	<polygon id="_x32_2_1_" class="st0" points="0.359,3.385 0.527,3.507 0.463,3.704 0.63,3.582 0.798,3.704 0.734,3.507 0.901,3.385 
		0.694,3.385 0.63,3.188 0.566,3.385 	"/>
	<polygon id="_x32_1_1_" class="st0" points="1.525,3.385 1.693,3.507 1.629,3.704 1.797,3.582 1.964,3.704 1.9,3.507 2.068,3.385 
		1.861,3.385 1.797,3.188 1.733,3.385 	"/>
	<polygon id="_x32_0_1_" class="st0" points="2.692,3.385 2.859,3.507 2.795,3.704 2.963,3.582 3.13,3.704 3.066,3.507 3.234,3.385 
		3.027,3.385 2.963,3.188 2.899,3.385 	"/>
	<polygon id="_x31_9_1_" class="st0" points="3.858,3.385 4.025,3.507 3.961,3.704 4.129,3.582 4.297,3.704 4.233,3.507 4.4,3.385 
		4.193,3.385 4.129,3.188 4.065,3.385 	"/>
	<polygon id="_x31_8_1_" class="st0" points="5.024,3.385 5.192,3.507 5.128,3.704 5.295,3.582 5.463,3.704 5.399,3.507 
		5.566,3.385 5.359,3.385 5.295,3.188 5.231,3.385 	"/>
	<polygon id="_x31_7_1_" class="st0" points="6.19,3.385 6.358,3.507 6.294,3.704 6.462,3.582 6.629,3.704 6.565,3.507 6.733,3.385 
		6.526,3.385 6.462,3.188 6.398,3.385 	"/>
	<polygon id="_x31_6_1_" class="st0" points="0.345,4.381 0.512,4.502 0.448,4.699 0.616,4.578 0.784,4.699 0.72,4.502 0.887,4.381 
		0.68,4.381 0.616,4.184 0.552,4.381 	"/>
	<polygon id="_x31_5_1_" class="st0" points="1.511,4.381 1.679,4.502 1.615,4.699 1.782,4.578 1.95,4.699 1.886,4.502 2.053,4.381 
		1.846,4.381 1.782,4.184 1.718,4.381 	"/>
	<polygon id="_x31_4_1_" class="st0" points="2.677,4.381 2.845,4.502 2.781,4.699 2.949,4.578 3.116,4.699 3.052,4.502 3.22,4.381 
		3.013,4.381 2.949,4.184 2.885,4.381 	"/>
	<polygon id="_x31_3_1_" class="st0" points="3.844,4.381 4.011,4.502 3.947,4.699 4.115,4.578 4.282,4.699 4.218,4.502 
		4.386,4.381 4.179,4.381 4.115,4.184 4.051,4.381 	"/>
	<polygon id="_x31_2_1_" class="st0" points="5.01,4.381 5.177,4.502 5.113,4.699 5.281,4.578 5.449,4.699 5.385,4.502 5.552,4.381 
		5.345,4.381 5.281,4.184 5.217,4.381 	"/>
	<polygon id="_x31_1_1_" class="st0" points="6.176,4.381 6.344,4.502 6.28,4.699 6.447,4.578 6.615,4.699 6.551,4.502 6.718,4.381 
		6.511,4.381 6.447,4.184 6.383,4.381 	"/>
	<polygon id="_x31_0_1_" class="st0" points="0.931,2.888 1.099,3.01 1.035,3.207 1.203,3.085 1.37,3.207 1.306,3.01 1.474,2.888 
		1.267,2.888 1.203,2.691 1.139,2.888 	"/>
	<polygon id="_x39__1_" class="st0" points="2.098,2.888 2.265,3.01 2.201,3.207 2.369,3.085 2.536,3.207 2.472,3.01 2.64,2.888 
		2.433,2.888 2.369,2.691 2.305,2.888 	"/>
	<polygon id="_x38__1_" class="st0" points="3.264,2.888 3.432,3.01 3.368,3.207 3.535,3.085 3.703,3.207 3.639,3.01 3.806,2.888 
		3.599,2.888 3.535,2.691 3.471,2.888 	"/>
	<polygon id="_x37__1_" class="st0" points="4.43,2.888 4.598,3.01 4.534,3.207 4.701,3.085 4.869,3.207 4.805,3.01 4.972,2.888 
		4.765,2.888 4.701,2.691 4.637,2.888 	"/>
	<polygon id="_x36__1_" class="st0" points="5.596,2.888 5.764,3.01 5.7,3.207 5.868,3.085 6.035,3.207 5.971,3.01 6.139,2.888 
		5.932,2.888 5.868,2.691 5.804,2.888 	"/>
	<polygon id="_x35__1_" class="st0" points="0.928,3.882 1.096,4.004 1.032,4.201 1.199,4.079 1.367,4.201 1.303,4.004 1.47,3.882 
		1.263,3.882 1.199,3.685 1.135,3.882 	"/>
	<polygon id="_x34__1_" class="st0" points="2.094,3.882 2.262,4.004 2.198,4.201 2.365,4.079 2.533,4.201 2.469,4.004 2.637,3.882 
		2.429,3.882 2.365,3.685 2.301,3.882 	"/>
	<polygon id="_x33__1_" class="st0" points="3.261,3.882 3.428,4.004 3.364,4.201 3.532,4.079 3.699,4.201 3.635,4.004 3.803,3.882 
		3.596,3.882 3.532,3.685 3.468,3.882 	"/>
	<polygon id="_x32__1_" class="st0" points="4.427,3.882 4.594,4.004 4.53,4.201 4.698,4.079 4.865,4.201 4.801,4.004 4.969,3.882 
		4.762,3.882 4.698,3.685 4.634,3.882 	"/>
	<polygon id="_x31__1_" class="st0" points="5.593,3.882 5.761,4.004 5.697,4.201 5.864,4.079 6.032,4.201 5.968,4.004 6.135,3.882 
		5.928,3.882 5.864,3.685 5.8,3.882 	"/>
</g>
</svg>