<!-- Generator: Adobe Illustrator 23.0.1, SVG Export Plug-In  -->
<svg version="1.1" xmlns="http://www.w3.org/2000/svg" xmlns:xlink="http://www.w3.org/1999/xlink" x="0px" y="0px"
	 width="25.625px" height="17.5px" viewBox="0 0 25.625 17.5" style="enable-background:new 0 0 25.625 17.5;" xml:space="preserve"
	>
<style type="text/css">
	.st0{fill:#009B3A;}
	.st1{fill:#FEDF00;}
	.st2{fill:#002776;}
	.st3{clip-path:url(#SVGID_2_);fill:#FFFFFF;}
	.st4{fill:#FFFFFF;}
	.st5{clip-path:url(#SVGID_4_);fill:#FFFFFF;}
</style>
<defs>
</defs>
<g>
	<rect id="_x34_8_1_" x="0.625" class="st0" width="25" height="17.5"/>
	<path id="_x34_7_1_" class="st1" d="M2.75,8.75l10.375,6.625L23.5,8.75L13.125,2.125L2.75,8.75z"/>
	<circle id="_x34_6_1_" class="st2" cx="13.125" cy="8.75" r="4.375"/>
	<g id="_x34_5_1_">
		<defs>
			<circle id="SVGID_1_" cx="13.125" cy="8.75" r="4.375"/>
		</defs>
		<clipPath id="SVGID_2_">
			<use xlink:href="#SVGID_1_"  style="overflow:visible;"/>
		</clipPath>
		<path class="st3" d="M0,17.5C0,11.632,4.757,6.875,10.625,6.875S21.25,11.632,21.25,17.5h-0.625c0-5.523-4.477-10-10-10
			c-5.523,0-10,4.477-10,10H0z"/>
	</g>
	<path id="_x34_4_1_" class="st0" d="M10.79,7.395l0.375,0.013l0.003-0.077l-0.303-0.011l0.004-0.107l0.238,0.008l0.003-0.071
		l-0.238-0.008l0.003-0.083l0.286,0.01l0.003-0.077l-0.357-0.012L10.79,7.395z"/>
	<path id="_x34_3_1_" class="st0" d="M11.319,7.418l0.071,0.006l0.025-0.285l0.058,0.292l0.065,0.006l0.108-0.277l-0.025,0.285
		l0.071,0.006l0.036-0.415l-0.104-0.009l-0.108,0.277l-0.058-0.292l-0.104-0.009L11.319,7.418z"/>
	<path id="_x34_2_1_" class="st0" d="M12.182,7.515l0.308,0.053l0.012-0.07l-0.238-0.041l0.016-0.094l0.194,0.033l0.012-0.07
		l-0.194-0.033l0.011-0.065l0.23,0.04l0.012-0.07l-0.301-0.052L12.182,7.515z"/>
	
		<rect id="_x34_1_1_" x="14.795" y="8.035" transform="matrix(0.3987 -0.9171 0.9171 0.3987 1.474 18.4748)" class="st0" width="0.06" height="0.158"/>
	
		<rect id="_x34_0_1_" x="14.736" y="8.171" transform="matrix(0.3987 -0.9171 0.9171 0.3987 1.402 18.5408)" class="st0" width="0.208" height="0.06"/>
	<path id="_x33_9_1_" class="st0" d="M16.045,8.817c-0.022,0.035,0,0.074,0.051,0.106c0.05,0.032,0.084,0.031,0.099,0.008
		c0.046-0.072-0.218-0.176-0.137-0.301c0.07-0.107,0.19-0.024,0.235,0.005c0.045,0.029,0.118,0.103,0.061,0.189l-0.077-0.049
		c0.024-0.038-0.002-0.074-0.043-0.099c-0.039-0.025-0.071-0.036-0.094,0c-0.039,0.058,0.219,0.168,0.14,0.292
		c-0.058,0.092-0.16,0.052-0.228,0.008c-0.058-0.037-0.144-0.123-0.088-0.211L16.045,8.817z"/>
	<path id="_x33_8_1_" class="st0" d="M15.437,8.613l0.326,0.185l0.038-0.067l-0.264-0.149l0.053-0.093l0.207,0.117l0.035-0.062
		l-0.207-0.117l0.041-0.073l0.249,0.141l0.038-0.067l-0.311-0.176L15.437,8.613z"/>
	<path id="_x33_7_1_" class="st0" d="M16.492,9.113c-0.024,0.034-0.004,0.074,0.045,0.109c0.048,0.035,0.083,0.035,0.098,0.013
		c0.049-0.069-0.208-0.187-0.121-0.307c0.076-0.103,0.191-0.014,0.234,0.017c0.044,0.031,0.112,0.109,0.051,0.192l-0.074-0.053
		c0.026-0.036,0.002-0.074-0.037-0.102c-0.038-0.027-0.069-0.04-0.094-0.005c-0.042,0.056,0.21,0.179,0.125,0.299
		c-0.063,0.088-0.162,0.043-0.228-0.004c-0.056-0.04-0.137-0.131-0.077-0.215L16.492,9.113z"/>
	<path id="_x33_6_1_" class="st0" d="M9.554,7.242C9.54,7.127,9.446,7.045,9.343,7.058C9.24,7.07,9.168,7.173,9.182,7.287
		c0.014,0.114,0.109,0.197,0.211,0.184C9.496,7.459,9.568,7.356,9.554,7.242z M9.368,7.138c0.142,0,0.142,0.254,0,0.254
		C9.227,7.391,9.227,7.138,9.368,7.138z"/>
	<path id="_x33_5_1_" class="st0" d="M17.231,9.526c0.053-0.102,0.021-0.224-0.071-0.271c-0.092-0.048-0.209-0.003-0.262,0.099
		c-0.053,0.102-0.021,0.224,0.071,0.271C17.061,9.672,17.179,9.628,17.231,9.526z M17.137,9.335c0.117,0.08-0.027,0.29-0.143,0.21
		C16.876,9.464,17.02,9.255,17.137,9.335z"/>
	<path id="_x33_4_1_" class="st0" d="M10.601,7.058c-0.046-0.074-0.138-0.077-0.138-0.077l-0.208,0.003l0.007,0.417
		c0,0,0.165,0,0.209-0.004c0.044-0.004,0.096-0.029,0.129-0.074c0.034-0.044,0.033-0.097,0.033-0.129
		C10.632,7.162,10.637,7.118,10.601,7.058z M10.431,7.322c-0.032,0-0.094,0-0.094,0s-0.004-0.21-0.005-0.262
		c0.086-0.001,0.089-0.001,0.123-0.001c0.062,0.001,0.088,0.047,0.101,0.077c0.005,0.033,0.005,0.047,0.006,0.075
		c-0.004,0.031-0.013,0.056-0.039,0.081C10.48,7.321,10.458,7.322,10.431,7.322z"/>
	<path id="_x33_3_1_" class="st0" d="M10.032,7.239c0,0,0.044-0.037,0.055-0.09c0.011-0.053-0.021-0.096-0.035-0.108
		c-0.014-0.012-0.043-0.042-0.086-0.04C9.922,7.003,9.71,7.017,9.71,7.017l0.023,0.416L9.81,7.428L9.8,7.274l0.134-0.009
		l0.032-0.002c0,0,0.041,0.068,0.045,0.11c0.003,0.025,0.002,0.046,0.002,0.046h0.075c0,0,0.002-0.074-0.02-0.118
		C10.048,7.255,10.032,7.239,10.032,7.239z M9.985,7.174C9.969,7.188,9.923,7.188,9.923,7.188L9.794,7.197
		c0,0-0.005-0.073-0.007-0.107c0.02,0,0.122-0.008,0.124-0.009c0.021-0.001,0.044-0.003,0.044-0.003s0.017,0.001,0.034,0.015
		c0.003,0.002,0.017,0.015,0.017,0.036C10.004,7.151,9.992,7.17,9.985,7.174z"/>
	<path id="_x33_2_1_" class="st0" d="M14.433,7.872c0.016-0.114-0.055-0.218-0.157-0.232c-0.103-0.014-0.198,0.067-0.214,0.181
		c-0.016,0.114,0.055,0.218,0.157,0.232C14.321,8.067,14.417,7.986,14.433,7.872z M14.279,7.724
		c0.137,0.036,0.072,0.282-0.065,0.245C14.077,7.933,14.142,7.688,14.279,7.724z"/>
	<path id="_x33_1_1_" class="st0" d="M13.834,7.711c0,0,0.053-0.021,0.081-0.067c0.028-0.046,0.011-0.098,0.002-0.114
		c-0.009-0.016-0.027-0.053-0.068-0.066c-0.041-0.012-0.247-0.068-0.247-0.068l-0.114,0.401l0.075,0.02l0.04-0.149l0.13,0.035
		l0.031,0.008c0,0,0.017,0.078,0.007,0.119c-0.006,0.024-0.013,0.044-0.013,0.044l0.071,0.025c0,0,0.026-0.069,0.02-0.118
		C13.844,7.731,13.834,7.711,13.834,7.711z M13.811,7.634c-0.02,0.008-0.063-0.007-0.063-0.007l-0.125-0.034
		c0,0,0.019-0.07,0.028-0.103c0.018,0.007,0.118,0.032,0.12,0.032c0.02,0.006,0.042,0.012,0.042,0.012s0.016,0.006,0.027,0.025
		c0.002,0.003,0.012,0.02,0.004,0.039C13.837,7.618,13.819,7.633,13.811,7.634z"/>
	<path id="_x33_0_1_" class="st0" d="M15.347,8.324c0,0,0.055-0.016,0.086-0.06c0.032-0.044,0.019-0.096,0.012-0.113
		c-0.008-0.017-0.022-0.055-0.062-0.071c-0.04-0.016-0.24-0.089-0.24-0.089l-0.148,0.39l0.073,0.026l0.053-0.145l0.126,0.046
		l0.03,0.011c0,0,0.01,0.079-0.003,0.119c-0.008,0.024-0.016,0.043-0.016,0.043l0.069,0.031c0,0,0.032-0.067,0.03-0.116
		C15.355,8.345,15.347,8.324,15.347,8.324z M15.331,8.246c-0.02,0.006-0.062-0.012-0.062-0.012l-0.121-0.045
		c0,0,0.025-0.068,0.037-0.101c0.018,0.008,0.115,0.042,0.117,0.043c0.019,0.008,0.041,0.015,0.041,0.015s0.015,0.007,0.025,0.028
		c0.002,0.003,0.01,0.02,0.001,0.04C15.358,8.232,15.339,8.245,15.331,8.246z"/>
	<path id="_x32_9_1_" class="st0" d="M13.321,7.572c0,0,0.053-0.022,0.079-0.069c0.027-0.047,0.009-0.098-0.001-0.114
		c-0.009-0.016-0.028-0.053-0.07-0.064c-0.041-0.011-0.248-0.062-0.248-0.062l-0.105,0.403l0.075,0.018l0.037-0.15l0.131,0.032
		l0.031,0.008 M13.296,7.496c-0.02,0.008-0.063-0.005-0.063-0.005l-0.125-0.031c0,0,0.017-0.071,0.025-0.104
		c0.019,0.006,0.119,0.029,0.121,0.03c0.02,0.006,0.043,0.011,0.043,0.011s0.016,0.006,0.027,0.025
		c0.002,0.003,0.012,0.019,0.005,0.039C13.322,7.479,13.305,7.494,13.296,7.496z"/>
	<path id="_x32_8_1_" class="st0" d="M14.871,8.098c-0.011-0.005-0.022-0.008-0.033-0.012c-0.033,0.061-0.105,0.105-0.169,0.061
		c-0.117-0.08,0.027-0.289,0.143-0.21c0.028,0.019,0.041,0.046,0.043,0.075c0.018,0.008,0.037,0.011,0.054,0.019
		c0.007,0.003,0.015,0.007,0.022,0.01c0.006-0.077-0.029-0.15-0.095-0.185c-0.092-0.048-0.209-0.003-0.262,0.099
		c-0.053,0.102-0.021,0.224,0.071,0.271c0.092,0.048,0.209,0.003,0.262-0.099c0.002-0.004,0.004-0.008,0.006-0.012
		C14.899,8.111,14.885,8.104,14.871,8.098z"/>
	<polygon id="_x32_7_1_" class="st4" points="14.646,7.336 14.554,7.403 14.589,7.512 14.496,7.445 14.404,7.512 14.439,7.403 
		14.347,7.336 14.461,7.336 14.496,7.227 14.532,7.336 	"/>
	<polygon id="_x32_6_1_" class="st4" points="9.375,7.906 9.485,7.986 9.443,8.116 9.554,8.036 9.664,8.116 9.622,7.986 
		9.732,7.906 9.596,7.906 9.554,7.777 9.511,7.906 	"/>
	<polygon id="_x32_5_1_" class="st4" points="14.2,8.491 14.276,8.546 14.247,8.636 14.323,8.581 14.399,8.636 14.37,8.546 
		14.446,8.491 14.352,8.491 14.323,8.401 14.294,8.491 	"/>
	<polygon id="_x32_4_1_" class="st4" points="10.29,9.517 10.337,9.55 10.319,9.606 10.365,9.572 10.412,9.606 10.394,9.551 
		10.441,9.517 10.383,9.517 10.365,9.463 10.348,9.517 	"/>
	<polyline id="_x32_3_1_" class="st4" points="9.94,9.616 9.898,9.746 9.762,9.746 9.872,9.826 9.83,9.955 9.94,9.875 10.051,9.955 
		10.009,9.826 10.119,9.746 9.983,9.746 9.94,9.616 	"/>
	<polygon id="_x32_2_1_" class="st4" points="9.256,10.148 9.348,10.215 9.313,10.323 9.405,10.256 9.497,10.323 9.462,10.215 
		9.553,10.148 9.44,10.148 9.405,10.04 9.37,10.148 	"/>
	<polygon id="_x32_1_1_" class="st4" points="11.315,8.877 11.405,8.943 11.371,9.049 11.461,8.983 11.551,9.049 11.517,8.943 
		11.607,8.877 11.495,8.877 11.461,8.772 11.427,8.877 	"/>
	<polygon id="_x32_0_1_" class="st4" points="10.727,10.184 10.81,10.244 10.778,10.342 10.861,10.282 10.944,10.342 10.913,10.244 
		10.996,10.184 10.893,10.184 10.861,10.086 10.83,10.184 	"/>
	<polygon id="_x31_9_1_" class="st4" points="10.604,10.642 10.68,10.697 10.651,10.787 10.727,10.731 10.803,10.787 10.774,10.697 
		10.85,10.642 10.756,10.642 10.727,10.552 10.698,10.642 	"/>
	<polygon id="_x31_8_1_" class="st4" points="11.194,10.99 11.305,11.07 11.263,11.2 11.373,11.12 11.483,11.2 11.441,11.07 
		11.551,10.99 11.415,10.99 11.373,10.861 11.331,10.99 	"/>
	<polygon id="_x31_7_1_" class="st4" points="12.975,9.42 13.068,9.487 13.032,9.596 13.125,9.529 13.218,9.596 13.182,9.487 
		13.275,9.42 13.16,9.42 13.125,9.311 13.09,9.42 	"/>
	<polygon id="_x31_6_1_" class="st4" points="12.559,9.814 12.636,9.869 12.607,9.959 12.683,9.903 12.759,9.959 12.73,9.869 
		12.806,9.814 12.712,9.814 12.683,9.724 12.654,9.814 	"/>
	<polygon id="_x31_5_1_" class="st4" points="12.827,10.115 12.873,10.149 12.855,10.204 12.902,10.17 12.948,10.204 12.93,10.149 
		12.977,10.115 12.92,10.115 12.902,10.061 12.884,10.115 	"/>
	<polygon id="_x31_4_1_" class="st4" points="13.481,9.802 13.573,9.869 13.538,9.978 13.631,9.911 13.723,9.978 13.688,9.869 
		13.78,9.802 13.666,9.802 13.631,9.693 13.596,9.802 	"/>
	<polygon id="_x31_3_1_" class="st4" points="12.947,10.676 13.057,10.756 13.015,10.886 13.125,10.806 13.235,10.886 
		13.193,10.756 13.303,10.676 13.167,10.676 13.125,10.546 13.084,10.676 	"/>
	<polygon id="_x31_2_1_" class="st4" points="13.065,12.154 13.1,12.18 13.087,12.221 13.122,12.195 13.158,12.221 13.144,12.18 
		13.179,12.154 13.136,12.154 13.122,12.112 13.109,12.154 	"/>
	<polygon id="_x31_1_1_" class="st4" points="13.965,11.166 14.041,11.221 14.012,11.311 14.088,11.255 14.164,11.311 
		14.135,11.221 14.212,11.166 14.117,11.166 14.088,11.076 14.06,11.166 	"/>
	<polygon id="_x31_0_1_" class="st4" points="14.283,11.646 14.375,11.713 14.34,11.822 14.433,11.755 14.525,11.822 14.49,11.713 
		14.583,11.646 14.468,11.646 14.433,11.537 14.397,11.646 	"/>
	<polygon id="_x39__1_" class="st4" points="14.859,11.32 14.935,11.265 14.841,11.265 14.811,11.175 14.783,11.265 14.688,11.265 
		14.764,11.32 14.735,11.41 14.811,11.355 14.888,11.41 	"/>
	<polygon id="_x38__1_" class="st4" points="15.174,11.12 15.251,11.175 15.222,11.265 15.298,11.21 15.374,11.265 15.345,11.175 
		15.421,11.12 15.327,11.12 15.298,11.03 15.269,11.12 	"/>
	<polygon id="_x37__1_" class="st4" points="15.159,11.534 15.252,11.601 15.217,11.71 15.309,11.642 15.402,11.71 15.366,11.601 
		15.459,11.534 15.344,11.534 15.309,11.425 15.274,11.534 	"/>
	<polygon id="_x36__1_" class="st4" points="15.196,11.99 15.272,12.046 15.243,12.136 15.32,12.08 15.396,12.136 15.367,12.046 
		15.443,11.99 15.348,11.99 15.32,11.901 15.291,11.99 	"/>
	<polygon id="_x35__1_" class="st4" points="15.632,11.198 15.708,11.254 15.679,11.343 15.755,11.288 15.831,11.343 15.802,11.254 
		15.878,11.198 15.784,11.198 15.755,11.108 15.726,11.198 	"/>
	<polyline id="_x34__1_" class="st4" points="15.955,10.971 16.048,11.039 16.013,11.148 16.105,11.08 16.198,11.148 16.162,11.039 
		16.255,10.971 16.141,10.971 16.105,10.863 16.07,10.971 15.958,10.971 	"/>
	<polygon id="_x33__1_" class="st4" points="16.218,10.63 16.311,10.697 16.275,10.806 16.368,10.739 16.461,10.806 16.425,10.697 
		16.518,10.63 16.403,10.63 16.368,10.521 16.333,10.63 	"/>
	<polygon id="_x32__1_" class="st4" points="16.011,10.225 16.122,10.305 16.08,10.434 16.19,10.354 16.3,10.434 16.258,10.305 
		16.368,10.225 16.232,10.225 16.19,10.095 16.148,10.225 	"/>
	<polygon id="_x31__1_" class="st4" points="16.679,10.291 16.755,10.346 16.726,10.436 16.802,10.38 16.879,10.436 16.849,10.346 
		16.926,10.291 16.831,10.291 16.802,10.201 16.774,10.291 	"/>
</g>
</svg>